Results
version=1
nRows=17
nColumns=24
inDegrees=yes
endheader
time	pelvis_tilt	pelvis_list	pelvis_rotation	pelvis_tx	pelvis_ty	pelvis_tz	hip_flexion_r	hip_adduction_r	hip_rotation_r	knee_angle_r	ankle_angle_r	subtalar_angle_r	mtp_angle_r	hip_flexion_l	hip_adduction_l	hip_rotation_l	knee_angle_l	ankle_angle_l	subtalar_angle_l	mtp_angle_l	lumbar_extension	lumbar_bending	lumbar_rotation
      0.64200000	     -8.32494549	     -4.29579098	      3.75234529	     -0.41431746	      0.89759461	      0.32838102	     20.61697434	      8.58866976	     -4.97574798	    -23.94318937	     11.17344177	     -3.66056855	      4.27059112	     20.98340094	     -8.61668524	     -5.61267089	    -72.11361221	     -2.27731474	     -8.08659473	      2.22743230	      2.31934840	      4.65013814	     -0.88804279
      0.64616667	     -8.48943805	     -4.17807725	      3.74947200	     -0.40912905	      0.89842056	      0.32849446	     20.17368873	      8.50937161	     -4.87562434	    -23.46454831	     11.20957677	     -3.60746407	      4.26506227	     21.91343646	     -8.39396518	     -5.65686357	    -72.22044690	     -1.89815537	     -8.27027969	      2.13911402	      2.45515890	      4.51971985	     -0.73274840
      0.65033333	     -8.66076370	     -4.04061410	      3.73388928	     -0.40391313	      0.89923525	      0.32861952	     19.73437180	      8.41257242	     -4.75356408	    -22.98675707	     11.23661824	     -3.56094594	      4.25928946	     22.82128518	     -8.15109722	     -5.72732662	    -72.22445915	     -1.53285530	     -8.41344661	      2.06407451	      2.60455941	      4.36983846	     -0.55116546
      0.65450000	     -8.82392506	     -3.88981302	      3.69949706	     -0.39869621	      0.90005302	      0.32875534	     19.28470784	      8.30622723	     -4.61930284	    -22.50530544	     11.25776080	     -3.51648185	      4.25241895	     23.69584103	     -7.89478704	     -5.82119149	    -72.14032906	     -1.18414487	     -8.52607119	      1.99112232	      2.75190975	      4.20243813	     -0.33775350
      0.65866667	     -8.96611193	     -3.72819064	      3.64812647	     -0.39345728	      0.90089206	      0.32890345	     18.80858985	      8.19223897	     -4.47223855	    -22.01873398	     11.27356592	     -3.46508508	      4.24561414	     24.51786938	     -7.63257536	     -5.93717889	    -71.96471510	     -0.83612911	     -8.60530676	      1.92898867	      2.86996837	      4.02679289	     -0.11995256
      0.66283333	     -9.08496414	     -3.56145851	      3.58428022	     -0.38816652	      0.90175409	      0.32905559	     18.29692093	      8.07437247	     -4.33381773	    -21.51616381	     11.29462542	     -3.40389543	      4.24052567	     25.28296095	     -7.37408572	     -6.08123160	    -71.69707314	     -0.50184961	     -8.66100528	      1.88961713	      2.98141752	      3.84667342	      0.06762566
      0.66700000	     -9.21423430	     -3.38495198	      3.49494544	     -0.38293329	      0.90256469	      0.32926232	     17.80948978	      7.95667954	     -4.13859753	    -21.03164928	     11.31240022	     -3.37146809	      4.22816845	     26.04460827	     -7.11236110	     -6.23957799	    -71.36071571	     -0.18298035	     -8.66073588	      1.79662193	      3.07108087	      3.65201780	      0.48347880
      0.67116667	     -9.30320990	     -3.20062983	      3.40131054	     -0.37765747	      0.90343420	      0.32942737	     17.27257058	      7.82214125	     -3.98127531	    -20.53833544	     11.29149050	     -3.28264987	      4.22234005	     26.72778456	     -6.84024244	     -6.41023771	    -70.92961144	      0.16739904	     -8.68292530	      1.76679542	      3.11559774	      3.45991175	      0.63611224
      0.67533333	     -9.37761520	     -3.01091181	      3.28467265	     -0.37238441	      0.90428666	      0.32965416	     16.71759389	      7.69391464	     -3.77741208	    -20.03723906	     11.30716669	     -3.24051708	      4.21193704	     27.37415650	     -6.58511955	     -6.61370854	    -70.43042088	      0.48659539	     -8.62839570	      1.70991006	      3.15209079	      3.25400522	      1.02712094
      0.67950000	     -9.43308879	     -2.81952420	      3.16129149	     -0.36709959	      0.90514202	      0.32986752	     16.14417979	      7.55845652	     -3.59315204	    -19.53814146	     11.29309823	     -3.16790791	      4.20322800	     27.97457127	     -6.32822992	     -6.82093255	    -69.85252501	      0.80666073	     -8.58702749	      1.66967953	      3.16271409	      3.05524584	      1.30237151
      0.68366667	     -9.48777522	     -2.61887927	      3.02287335	     -0.36182339	      0.90597231	      0.33008189	     15.57805868	      7.40933424	     -3.41107905	    -19.05095930	     11.24495035	     -3.07149109	      4.19859446	     28.54922398	     -6.06423154	     -7.04154790	    -69.19930868	      1.12636708	     -8.53999256	      1.65841616	      3.17084186	      2.85097497	      1.48683789
      0.68783333	     -9.49481316	     -2.43020296	      2.87305027	     -0.35653380	      0.90683187	      0.33034347	     14.94954867	      7.28272990	     -3.19826277	    -18.53735703	     11.25006899	     -3.01844332	      4.19381167	     29.05229011	     -5.83537315	     -7.27929716	    -68.48343128	      1.42124869	     -8.42850725	      1.64179344	      3.12403143	      2.65408433	      1.89362881
      0.69200000	     -9.52375793	     -2.22609858	      2.71160760	     -0.35126821	      0.90762446	      0.33057969	     14.36338560	      7.12796083	     -3.00459289	    -18.05648957	     11.19024582	     -2.92172246	      4.19088477	     29.55563930	     -5.58177677	     -7.51868994	    -67.69365131	      1.71693183	     -8.34294131	      1.64075043	      3.10016203	      2.45078962	      2.09833435
      0.69616667	     -9.49719860	     -2.04317901	      2.54364362	     -0.34598116	      0.90844739	      0.33085542	     13.70379715	      7.00281636	     -2.79402791	    -17.54413529	     11.18310714	     -2.85630067	      4.19033753	     29.98179343	     -5.37350115	     -7.77304012	    -66.85201245	      1.99206874	     -8.21101815	      1.64387159	      3.01081988	      2.25843017	      2.49582156
      0.70033333	     -9.47855341	     -1.85489483	      2.36443663	     -0.34072137	      0.90921736	      0.33112750	     13.06487826	      6.86510459	     -2.58468306	    -17.04847977	     11.13869294	     -2.77435613	      4.19171541	     30.39610108	     -5.15845763	     -8.02889063	    -65.94382595	      2.26026409	     -8.08245248	      1.65446852	      2.93151138	      2.06805089	      2.81308719
      0.70450000	     -9.44671138	     -1.67103244	      2.17830908	     -0.33546481	      0.90995463	      0.33140485	     12.41589337	      6.72848649	     -2.38046924	    -16.55679616	     11.09695675	     -2.68699989	      4.19579253	     30.77699165	     -4.95340284	     -8.28734813	    -64.97719992	      2.51169675	     -7.93983956	      1.67099327	      2.83633305	      1.88268928	      3.11265026
      0.70866667	     -9.40265013	     -1.49311592	      1.98996176	     -0.33022137	      0.91065806	      0.33167436	     11.75859842	      6.59291580	     -2.18133226	    -16.06903401	     11.05372597	     -2.59439878	      4.20238724	     31.12794441	     -4.75705202	     -8.54501621	    -63.95382383	      2.74696410	     -7.79107172	      1.69234706	      2.72465301	      1.70248450	      3.41124084
